<svg width="16" height="17" fill="none" xmlns="http://www.w3.org/2000/svg"><path d="M7.533 13.451a.663.663 0 01-.192-.466.603.603 0 01.176-.467l3.266-3.267h-7.45a.646.646 0 01-.475-.192.642.642 0 01-.191-.475c0-.188.064-.347.192-.475a.642.642 0 01.474-.191h7.45L7.517 4.65a.606.606 0 01-.176-.467.659.659 0 01.192-.466A.632.632 0 018 3.534c.189 0 .344.062.467.184l4.4 4.4a.454.454 0 01.141.208.793.793 0 010 .508.577.577 0 01-.141.217l-4.4 4.4a.632.632 0 01-.467.183.632.632 0 01-.467-.183z" fill="#61399F"/></svg>