<svg width="11" height="19" fill="none" xmlns="http://www.w3.org/2000/svg"><path d="M10.992 4.909l-.557 2.17H0l.557-2.17h10.435zM5.914 18.584l-5.7-7.637L.2 9.233h2.826c.705 0 1.302-.12 1.79-.36.489-.24.86-.59 1.115-1.046.255-.463.382-1.026.382-1.688 0-.984-.265-1.766-.796-2.347-.53-.58-1.361-.87-2.491-.87H0L.581.584h2.444c1.316 0 2.4.232 3.255.695.854.463 1.491 1.104 1.91 1.925.42.82.63 1.766.63 2.838 0 .956-.173 1.82-.518 2.593-.345.774-.894 1.404-1.648 1.89-.753.486-1.743.77-2.969.852l-.071.018 5.205 7.04v.15H5.914zM11 .584l-.565 2.189-8.342-.053.565-2.136H11z" fill="#61399F"/></svg>